<svg viewBox="0 0 100 100">

    <g
       class="replay"
       id="g877">
      <path
         style="display:inline;fill:#ff6600;fill-opacity:1;stroke:#aa4400;stroke-width:0.70191723;stroke-linecap:butt;stroke-linejoin:miter;stroke-miterlimit:4;stroke-dasharray:none;stroke-opacity:1"
         d="m 37.987031,88.137059 c 0.239543,4.475558 -0.507502,4.525946 -3.457952,7.17864 2.153824,0.765567 1.992397,1.71805 6.913386,0.177647 1.377321,-3.461161 0.341223,-4.169001 -0.08756,-7.17864 z m 42.704015,0 c 0.239543,4.475558 -0.505007,4.525946 -3.455456,7.17864 2.153824,0.765567 1.992396,1.71805 6.913408,0.177647 1.377322,-3.461161 0.338705,-4.169001 -0.09011,-7.17864 z"
         id="path1023" />
      <path
         style="color:#000000;font-style:normal;font-variant:normal;font-weight:normal;font-stretch:normal;font-size:medium;line-height:normal;font-family:sans-serif;font-variant-ligatures:normal;font-variant-position:normal;font-variant-caps:normal;font-variant-numeric:normal;font-variant-alternates:normal;font-feature-settings:normal;text-indent:0;text-align:start;text-decoration:none;text-decoration-line:none;text-decoration-style:solid;text-decoration-color:#000000;letter-spacing:normal;word-spacing:normal;text-transform:none;writing-mode:lr-tb;direction:ltr;text-orientation:mixed;dominant-baseline:auto;baseline-shift:baseline;text-anchor:start;white-space:normal;shape-padding:0;clip-rule:nonzero;display:inline;overflow:visible;visibility:visible;opacity:1;isolation:auto;mix-blend-mode:normal;color-interpolation:sRGB;color-interpolation-filters:linearRGB;solid-color:#000000;solid-opacity:1;vector-effect:none;fill:#ff6600;fill-opacity:1;fill-rule:nonzero;stroke:none;stroke-width:1.2810955;stroke-linecap:round;stroke-linejoin:miter;stroke-miterlimit:4;stroke-dasharray:none;stroke-dashoffset:0;stroke-opacity:1;paint-order:markers fill stroke;color-rendering:auto;image-rendering:auto;shape-rendering:auto;text-rendering:auto;enable-background:accumulate"
         d="m 15.162502,6.6974184 a 6.4061179,6.4061179 0 1 0 0,12.8109576 h 10.571534 c -11.199154,9.009508 -16.8205415,23.421556 -14.51742,37.757285 2.460669,15.316091 13.536378,27.881677 28.42182,32.247576 a 6.4061179,6.4061179 0 0 0 8.061885,-4.411273 6.4061179,6.4061179 0 0 0 -4.456299,-7.881739 C 33.071102,74.236506 25.546593,65.698656 23.864945,55.231421 22.219363,44.988553 26.476829,34.76163 34.836825,28.686222 v 9.580693 a 6.4061179,6.4061179 0 1 0 12.810957,0 V 13.102897 A 6.4061179,6.4061179 0 0 0 41.242315,6.6974184 Z m 44.227816,0 a 6.4061179,6.4061179 0 0 0 -6.170268,4.6940156 6.4061179,6.4061179 0 0 0 4.456321,7.881738 c 10.17292,2.983719 17.697406,11.521569 19.379054,21.988804 1.645605,10.242867 -2.611884,20.469788 -10.971879,26.545199 v -9.580693 a 6.4061179,6.4061179 0 1 0 -12.810958,0 v 25.164019 a 6.4061179,6.4061179 0 0 0 6.40549,6.405478 h 26.07979 a 6.4061179,6.4061179 0 1 0 0,-12.810955 H 75.186335 C 86.385488,67.975515 92.006898,53.563465 89.703753,39.227736 87.243108,23.911647 76.1674,11.34606 61.281935,6.9801605 A 6.4061179,6.4061179 0 0 0 59.390318,6.6974184 Z"
         id="path1019" />
      <path
         style="display:inline;opacity:0.35;fill:#ffffff;stroke:none;stroke-width:1.2810955px;stroke-linecap:butt;stroke-linejoin:miter;stroke-opacity:1"
         d="m 58.564628,8.6691041 c -0.709593,0.8396754 -0.628013,2.2398999 0.440362,4.3462169 4.41649,-0.22055 16.704974,6.243187 23.152305,11.637452 C 76.004401,17.555975 67.392364,10.895324 58.564628,8.6691041 Z M 25.583929,8.8117251 C 22.085707,8.8292841 18.393919,9.0383753 14.149138,9.3722049 14.338822,11.30701 15.25478,12.44518 16.939015,12.737581 20.482336,10.091998 34.771625,9.7376269 43.131413,10.620773 36.70774,9.2850751 31.414245,8.7825332 25.583929,8.8117251 Z M 27.10773,20.937094 C 20.549083,27.251304 16.378535,37.309114 14.559488,46.523973 17.479186,38.640994 24.940691,26.931127 28.884242,24.930508 28.766181,22.571678 28.140501,21.31384 27.10773,20.937094 Z m 28.954758,33.681302 c -0.890197,11.319416 -0.888556,18.704412 1.248563,28.982282 -0.88315,-8.359786 -0.528781,-22.649096 2.116811,-26.192399 -0.292404,-1.684251 -1.430576,-2.60008 -3.365374,-2.789883 z"
         id="path1031" />
      <path
         style="color:#000000;font-style:normal;font-variant:normal;font-weight:normal;font-stretch:normal;font-size:medium;line-height:normal;font-family:sans-serif;font-variant-ligatures:normal;font-variant-position:normal;font-variant-caps:normal;font-variant-numeric:normal;font-variant-alternates:normal;font-feature-settings:normal;text-indent:0;text-align:start;text-decoration:none;text-decoration-line:none;text-decoration-style:solid;text-decoration-color:#000000;letter-spacing:normal;word-spacing:normal;text-transform:none;writing-mode:lr-tb;direction:ltr;text-orientation:mixed;dominant-baseline:auto;baseline-shift:baseline;text-anchor:start;white-space:normal;shape-padding:0;clip-rule:nonzero;display:inline;overflow:visible;visibility:visible;opacity:0.25;isolation:auto;mix-blend-mode:normal;color-interpolation:sRGB;color-interpolation-filters:linearRGB;solid-color:#000000;solid-opacity:1;vector-effect:none;fill:#333333;fill-opacity:1;fill-rule:nonzero;stroke:none;stroke-width:1.2810955;stroke-linecap:round;stroke-linejoin:miter;stroke-miterlimit:4;stroke-dasharray:none;stroke-dashoffset:0;stroke-opacity:1;paint-order:markers fill stroke;color-rendering:auto;image-rendering:auto;shape-rendering:auto;text-rendering:auto;enable-background:accumulate"
         d="m 44.064722,7.3554803 a 6.4061179,6.4061179 0 0 1 1.523801,4.1460467 v 25.164018 a 6.4061179,6.4061179 0 0 1 -9.227874,5.832488 6.4061179,6.4061179 0 0 0 11.287133,-4.231118 V 13.102897 a 6.4061179,6.4061179 0 0 0 -3.58306,-5.7474167 z m 31.399346,7.1461117 c 6.548134,6.01713 11.077141,14.134915 12.540733,23.244878 2.303145,14.335726 -3.318265,28.747776 -14.517419,37.757286 h 3.422927 C 86.950774,66.444014 91.884932,52.804348 89.703753,39.227736 88.116416,29.34759 82.931464,20.62982 75.464068,14.501592 Z m -21.045499,2.622243 a 6.4061179,6.4061179 0 0 0 3.257802,2.149337 c 3.529759,1.035286 6.731973,2.753021 9.490613,4.974253 -3.10483,-2.952461 -6.908787,-5.19996 -11.189588,-6.455519 a 6.4061179,6.4061179 0 0 1 -1.558827,-0.668071 z m -44.220308,0.132617 a 6.4061179,6.4061179 0 0 0 4.964241,2.251928 h 6.653188 c 0.602945,-0.548948 1.219291,-1.086666 1.859086,-1.60137 H 13.103243 a 6.4061179,6.4061179 0 0 1 -2.904982,-0.650558 z m 22.579305,9.828404 c -8.359996,6.075411 -12.617485,16.302332 -10.97188,26.545199 1.188816,7.399708 5.306757,13.824809 11.207078,18.015407 -4.795904,-4.14518 -8.102155,-9.90541 -9.147819,-16.414037 -1.503654,-9.359421 1.932557,-18.696106 8.912621,-24.87377 z m 30.205816,25.574372 a 6.4061179,6.4061179 0 0 1 1.401211,4.085992 v 9.580693 c 0.588829,-0.427921 1.151457,-0.880985 1.698953,-1.348654 V 58.226486 A 6.4061179,6.4061179 0 0 0 62.983382,52.659228 Z M 44.337465,77.638086 a 6.4061179,6.4061179 0 0 1 1.30362,5.862514 6.4061179,6.4061179 0 0 1 -8.061908,4.411272 c -4.481136,-1.314317 -8.605984,-3.383301 -12.265496,-6.035161 4.13982,3.429305 8.980338,6.069015 14.324755,7.636531 a 6.4061179,6.4061179 0 0 0 8.061885,-4.411274 6.4061179,6.4061179 0 0 0 -3.362856,-7.463882 z M 89.13826,77.900811 A 6.4061179,6.4061179 0 0 1 84.058916,88.314715 H 57.979103 a 6.4061179,6.4061179 0 0 1 -3.290286,-0.918284 6.4061179,6.4061179 0 0 0 4.989261,2.399553 h 26.07979 A 6.4061179,6.4061179 0 0 0 89.13826,77.900811 Z"
         id="path1041" />
      <path
         id="path1054"
         d="m 15.162502,6.6974184 a 6.4061179,6.4061179 0 1 0 0,12.8109576 h 10.571534 c -11.199154,9.009508 -16.8205415,23.421556 -14.51742,37.757285 2.460669,15.316091 13.536378,27.881677 28.42182,32.247576 a 6.4061179,6.4061179 0 0 0 8.061885,-4.411273 6.4061179,6.4061179 0 0 0 -4.456299,-7.881739 C 33.071102,74.236506 25.546593,65.698656 23.864945,55.231421 22.219363,44.988553 26.476829,34.76163 34.836825,28.686222 v 9.580693 a 6.4061179,6.4061179 0 1 0 12.810957,0 V 13.102897 A 6.4061179,6.4061179 0 0 0 41.242315,6.6974184 Z m 44.227816,0 a 6.4061179,6.4061179 0 0 0 -6.170268,4.6940156 6.4061179,6.4061179 0 0 0 4.456321,7.881738 c 10.17292,2.983719 17.697406,11.521569 19.379054,21.988804 1.645605,10.242867 -2.611884,20.469788 -10.971879,26.545199 v -9.580693 a 6.4061179,6.4061179 0 1 0 -12.810958,0 v 25.164019 a 6.4061179,6.4061179 0 0 0 6.40549,6.405478 h 26.07979 a 6.4061179,6.4061179 0 1 0 0,-12.810955 H 75.186335 C 86.385488,67.975515 92.006898,53.563465 89.703753,39.227736 87.243108,23.911647 76.1674,11.34606 61.281935,6.9801605 A 6.4061179,6.4061179 0 0 0 59.390318,6.6974184 Z"
         style="color:#000000;font-style:normal;font-variant:normal;font-weight:normal;font-stretch:normal;font-size:medium;line-height:normal;font-family:sans-serif;font-variant-ligatures:normal;font-variant-position:normal;font-variant-caps:normal;font-variant-numeric:normal;font-variant-alternates:normal;font-feature-settings:normal;text-indent:0;text-align:start;text-decoration:none;text-decoration-line:none;text-decoration-style:solid;text-decoration-color:#000000;letter-spacing:normal;word-spacing:normal;text-transform:none;writing-mode:lr-tb;direction:ltr;text-orientation:mixed;dominant-baseline:auto;baseline-shift:baseline;text-anchor:start;white-space:normal;shape-padding:0;clip-rule:nonzero;display:inline;overflow:visible;visibility:visible;opacity:1;isolation:auto;mix-blend-mode:normal;color-interpolation:sRGB;color-interpolation-filters:linearRGB;solid-color:#000000;solid-opacity:1;vector-effect:none;fill:none;fill-opacity:1;fill-rule:nonzero;stroke:#aa4400;stroke-width:1.2810955;stroke-linecap:round;stroke-linejoin:miter;stroke-miterlimit:4;stroke-dasharray:none;stroke-dashoffset:0;stroke-opacity:1;paint-order:markers fill stroke;color-rendering:auto;image-rendering:auto;shape-rendering:auto;text-rendering:auto;enable-background:accumulate" />
      <ellipse
         style="opacity:0;vector-effect:none;fill:#0000ff;fill-opacity:1;stroke:none;stroke-width:1.1831795;stroke-linecap:round;stroke-linejoin:round;stroke-miterlimit:4;stroke-dasharray:none;stroke-dashoffset:0;stroke-opacity:1;paint-order:markers fill stroke"
         id="path869"
         cx="49.614429"
         cy="50.413357"
         rx="47.857643"
         ry="48.79343" />
    </g>

</svg>