<?xml version="1.0" encoding="UTF-8" standalone="no"?>
<svg
   xmlns:dc="http://purl.org/dc/elements/1.1/"
   xmlns:cc="http://creativecommons.org/ns#"
   xmlns:rdf="http://www.w3.org/1999/02/22-rdf-syntax-ns#"
   xmlns:svg="http://www.w3.org/2000/svg"
   xmlns="http://www.w3.org/2000/svg"
   xmlns:xlink="http://www.w3.org/1999/xlink"
   xmlns:sodipodi="http://sodipodi.sourceforge.net/DTD/sodipodi-0.dtd"
   xmlns:inkscape="http://www.inkscape.org/namespaces/inkscape"
   width="100"
   height="100"
   viewBox="0 0 100 100"
   version="1.1"
   id="svg830"
   inkscape:version="1.0.2 (1.0.2+r75+1)"
   sodipodi:docname="birthday-2022.svg">
  <defs
     id="defs824">
    <clipPath
       clipPathUnits="userSpaceOnUse"
       id="clipPath842">
      <ellipse
         ry="50"
         rx="44.191624"
         cy="0"
         cx="0"
         id="ellipse844"
         style="opacity:1;vector-effect:none;fill:#ff6600;fill-opacity:1;stroke:none;stroke-width:1;stroke-linecap:round;stroke-linejoin:miter;stroke-miterlimit:4;stroke-dasharray:none;stroke-dashoffset:0;stroke-opacity:1;paint-order:markers fill stroke" />
    </clipPath>
  </defs>
  <sodipodi:namedview
     id="base"
     pagecolor="#ffffff"
     bordercolor="#666666"
     borderopacity="1.0"
     inkscape:pageopacity="0.0"
     inkscape:pageshadow="2"
     inkscape:zoom="2.0125"
     inkscape:cx="70.973445"
     inkscape:cy="30.26632"
     inkscape:document-units="px"
     inkscape:current-layer="clouds"
     showgrid="false"
     units="px"
     inkscape:window-width="1853"
     inkscape:window-height="1025"
     inkscape:window-x="1987"
     inkscape:window-y="27"
     inkscape:window-maximized="1"
     inkscape:document-rotation="0" />
  <metadata
     id="metadata827">
    <rdf:RDF>
      <cc:Work
         rdf:about="">
        <dc:format>image/svg+xml</dc:format>
        <dc:type
           rdf:resource="http://purl.org/dc/dcmitype/StillImage" />
        <dc:title></dc:title>
      </cc:Work>
    </rdf:RDF>
  </metadata>
  <g
     inkscape:groupmode="layer"
     id="layer3"
     inkscape:label="Master"
     style="display:inline">
    <circle
       r="14.392122"
       cy="217.64377"
       cx="-235.48128"
       id="circle1408"
       style="opacity:1;vector-effect:none;fill:#00ff00;fill-opacity:1;stroke:none;stroke-width:1.23891;stroke-linecap:round;stroke-linejoin:miter;stroke-miterlimit:4;stroke-dasharray:none;stroke-dashoffset:0;stroke-opacity:1;paint-order:markers fill stroke" />
  </g>
  <g
     inkscape:groupmode="layer"
     id="layer5"
     inkscape:label="Prize"
     style="display:none">
    <g
       id="prize"
       class="baloon"
       style="display:inline">
      <image
         sodipodi:absref="/home/daniele/hack/git/birthday-2021/resources/rachele/t01.png"
         xlink:href="../../birthday-2021/resources/rachele/t01.png"
         clip-path="url(#clipPath842)"
         width="100"
         height="100"
         preserveAspectRatio="none"
         id="image872"
         x="-50"
         y="-50"
         inkscape:export-xdpi="107.24358"
         inkscape:export-ydpi="107.24358" />
      <ellipse
         ry="50"
         rx="44.191624"
         cy="0"
         cx="0"
         id="ellipse874"
         style="opacity:1;vector-effect:none;fill:#ff6600;fill-opacity:1;stroke:none;stroke-width:1;stroke-linecap:round;stroke-linejoin:miter;stroke-miterlimit:4;stroke-dasharray:none;stroke-dashoffset:0;stroke-opacity:1;paint-order:markers fill stroke"
         class="colorfill"
         inkscape:export-xdpi="107.24358"
         inkscape:export-ydpi="107.24358" />
      <ellipse
         style="opacity:1;vector-effect:none;fill:none;fill-opacity:1;stroke:#aa4400;stroke-width:1;stroke-linecap:round;stroke-linejoin:miter;stroke-miterlimit:4;stroke-dasharray:none;stroke-dashoffset:0;stroke-opacity:1;paint-order:markers fill stroke"
         id="ellipse876"
         cx="0"
         cy="0"
         rx="44.191624"
         ry="50"
         inkscape:export-xdpi="107.24358"
         inkscape:export-ydpi="107.24358" />
      <path
         inkscape:connector-curvature="0"
         id="path878"
         d="M 35.150391,-30.236328 A 44.191624,50 0 0 1 40.621094,-6.25 44.191624,50 0 0 1 -3.5722656,43.75 44.191624,50 0 0 1 -38.726562,23.978516 44.191624,50 0 0 0 0,50 44.191624,50 0 0 0 44.191406,0 44.191624,50 0 0 0 35.150391,-30.236328 Z"
         style="opacity:0.25;vector-effect:none;fill:#333333;fill-opacity:1;stroke:none;stroke-width:1;stroke-linecap:round;stroke-linejoin:miter;stroke-miterlimit:4;stroke-dasharray:none;stroke-dashoffset:0;stroke-opacity:1;paint-order:markers fill stroke"
         class="shadows"
         inkscape:export-xdpi="107.24358"
         inkscape:export-ydpi="107.24358" />
      <g
         id="g888"
         class="points"
         transform="matrix(1.3882683,0,0,1.3882683,0.00263689,-5.8735967)">
        <text
           xml:space="preserve"
           style="font-style:normal;font-variant:normal;font-weight:normal;font-stretch:normal;font-size:70.0761px;line-height:1.25;font-family:'AR JULIAN';-inkscape-font-specification:'AR JULIAN, Normal';font-variant-ligatures:normal;font-variant-caps:normal;font-variant-numeric:normal;font-feature-settings:normal;text-align:center;letter-spacing:0px;word-spacing:0px;writing-mode:lr-tb;text-anchor:middle;fill:#ffffff;fill-opacity:1;stroke:#ffffff;stroke-width:2;stroke-miterlimit:4;stroke-dasharray:none"
           x="0.14148159"
           y="26.788397"
           id="text882"><tspan
             style="fill:#ffffff;stroke:#ffffff;stroke-width:2;stroke-miterlimit:4;stroke-dasharray:none"
             sodipodi:role="line"
             id="tspan880"
             x="0.1414815"
             y="26.788397">X</tspan></text>
        <text
           id="text886"
           y="26.788397"
           x="0.14148159"
           style="font-style:normal;font-variant:normal;font-weight:normal;font-stretch:normal;font-size:70.0761px;line-height:1.25;font-family:'AR JULIAN';-inkscape-font-specification:'AR JULIAN, Normal';font-variant-ligatures:normal;font-variant-caps:normal;font-variant-numeric:normal;font-feature-settings:normal;text-align:center;letter-spacing:0px;word-spacing:0px;writing-mode:lr-tb;text-anchor:middle;fill:#0000aa;fill-opacity:1;stroke:none;stroke-width:0.93852"
           xml:space="preserve"><tspan
             y="26.788397"
             x="0.1414815"
             id="tspan884"
             sodipodi:role="line"
             style="fill:#0000aa;stroke-width:0.93852">X</tspan></text>
      </g>
      <path
         sodipodi:nodetypes="cccc"
         inkscape:connector-curvature="0"
         id="path890"
         d="m -5.6530096,-35.631344 c -3.3202018,-3.4628 -6.8382254,-6.589304 -12.5000004,-6.071429 -9.639,8.070297 -15.993036,27.412571 -16.428571,39.8214283 4.57346,-12.3743463 8.940271,-21.6378793 28.9285714,-33.7499993 z"
         style="opacity:0.45;fill:#ffffff;stroke:none;stroke-width:1px;stroke-linecap:butt;stroke-linejoin:miter;stroke-opacity:1"
         class="shadows"
         inkscape:export-xdpi="107.24358"
         inkscape:export-ydpi="107.24358" />
    </g>
  </g>
  <g
     inkscape:groupmode="layer"
     id="layer6"
     inkscape:label="Clouds">
    <g
       id="g900"
       transform="translate(-66.929044,-100.73298)">
      <path
         id="rect878"
         style="opacity:1;fill:#f9f9f9;fill-opacity:1;stroke:none;stroke-width:2;stroke-linecap:round;stroke-linejoin:round;paint-order:markers fill stroke"
         d="m -161.38965,-32.85386 a 16.876848,16.876848 0 0 0 -16.87695,16.876953 16.876848,16.876848 0 0 0 1.28711,6.464844 h -5.00977 c -7.30973,0 -13.19531,5.885585 -13.19531,13.195313 0,7.309727 5.88558,13.193359 13.19531,13.193359 h 52.54492 c 7.30973,0 13.19336,-5.883632 13.19336,-13.193359 0,-7.309728 -5.88363,-13.195313 -13.19336,-13.195313 h -0.16797 a 10.226833,10.226833 0 0 0 0.83399,-4.042969 10.226833,10.226833 0 0 0 -10.22657,-10.226562 10.226833,10.226833 0 0 0 -6.43945,2.28125 16.876848,16.876848 0 0 0 -15.94531,-11.353516 z" />
      <path
         style="opacity:1;fill:#e6e6e6;fill-opacity:1;stroke:none;stroke-width:2;stroke-linecap:round;stroke-linejoin:round;paint-order:markers fill stroke"
         d="m -143.92215,-21.782115 c 5.64791,1.51e-4 10.22641,4.578651 10.22656,10.226562 -2.8e-4,1.390335 -0.23203,4.303644 -0.78195,5.5806 h 0.16797 c 7.30973,0 13.19336,5.885584 13.19336,13.195312 0,3.311472 -1.21624,6.323081 -3.2168,8.634766 4.75584,-1.989721 8.08203,-6.677117 8.08203,-12.171875 0,-7.309728 -5.88363,-13.195313 -13.19336,-13.195313 h -0.16797 c 0.54993,-1.276955 0.8337,-2.652632 0.83399,-4.042968 -1.5e-4,-5.647916 -4.57865,-10.226418 -10.22657,-10.226563 -2.34452,-1.9e-4 -4.61791,0.805187 -6.43945,2.28125 z"
         id="path885"
         sodipodi:nodetypes="cccsscssccccc" />
      <path
         id="path895"
         style="opacity:1;fill:none;fill-opacity:0.5;stroke:#cccccc;stroke-width:2;stroke-linecap:round;stroke-linejoin:round;paint-order:markers fill stroke"
         d="m -161.38965,-32.85386 a 16.876848,16.876848 0 0 0 -16.87695,16.876953 16.876848,16.876848 0 0 0 1.28711,6.464844 h -5.00977 c -7.30973,0 -13.19531,5.885585 -13.19531,13.195313 0,7.309727 5.88558,13.193359 13.19531,13.193359 h 52.54492 c 7.30973,0 13.19336,-5.883632 13.19336,-13.193359 0,-7.309728 -5.88363,-13.195313 -13.19336,-13.195313 h -0.16797 a 10.226833,10.226833 0 0 0 0.83399,-4.042969 10.226833,10.226833 0 0 0 -10.22657,-10.226562 10.226833,10.226833 0 0 0 -6.43945,2.28125 16.876848,16.876848 0 0 0 -15.94531,-11.353516 z" />
    </g>
    <g
       id="clouds">
      <use
         x="0"
         y="0"
         xlink:href="#g900"
         id="use946"
         transform="translate(230.46691,33.069514)"
         width="100%"
         height="100%" />
      <use
         x="0"
         y="0"
         xlink:href="#g900"
         id="use930"
         transform="translate(261.9414,42.114172)"
         width="100%"
         height="100%" />
      <use
         x="0"
         y="0"
         xlink:href="#g900"
         id="use932"
         transform="translate(291.6912,34.206148)"
         width="100%"
         height="100%" />
      <use
         x="0"
         y="0"
         xlink:href="#g900"
         id="use934"
         transform="translate(333.84922,45.340372)"
         width="100%"
         height="100%" />
      <use
         x="0"
         y="0"
         xlink:href="#g900"
         id="use936"
         transform="translate(240.61144,54.899592)"
         width="100%"
         height="100%" />
      <use
         x="0"
         y="0"
         xlink:href="#g900"
         id="use938"
         transform="translate(293.71874,65.455972)"
         width="100%"
         height="100%" />
      <use
         x="0"
         y="0"
         xlink:href="#g900"
         id="use940"
         transform="translate(330.22301,86.28876)"
         width="100%"
         height="100%" />
      <use
         x="0"
         y="0"
         xlink:href="#g900"
         id="use942"
         transform="translate(260.90575,81.939276)"
         width="100%"
         height="100%" />
      <use
         x="0"
         y="0"
         xlink:href="#g900"
         id="use944"
         transform="translate(217.69863,88.999722)"
         width="100%"
         height="100%" />
      <use
         x="0"
         y="0"
         xlink:href="#g900"
         id="use902"
         transform="translate(186.16348,100.988)"
         width="100%"
         height="100%" />
      <use
         x="0"
         y="0"
         xlink:href="#g900"
         id="use948"
         transform="translate(126.6081,115.28344)"
         width="100%"
         height="100%" />
      <use
         x="0"
         y="0"
         xlink:href="#g900"
         id="use904"
         transform="translate(191.44278,126.35519)"
         width="100%"
         height="100%" />
      <use
         x="0"
         y="0"
         xlink:href="#g900"
         id="use906"
         transform="translate(158.38544,138.62524)"
         width="100%"
         height="100%" />
      <use
         x="0"
         y="0"
         xlink:href="#g900"
         id="use950"
         transform="translate(111.53842,156.69109)"
         width="100%"
         height="100%" />
      <use
         x="0"
         y="0"
         xlink:href="#g900"
         id="use908"
         transform="translate(186.33059,155.30087)"
         width="100%"
         height="100%" />
      <use
         x="0"
         y="0"
         xlink:href="#g900"
         id="use910"
         transform="translate(179.49677,175.98071)"
         width="100%"
         height="100%" />
      <use
         x="0"
         y="0"
         xlink:href="#g900"
         id="use912"
         transform="translate(199.90505,205.01381)"
         width="100%"
         height="100%" />
      <use
         x="0"
         y="0"
         xlink:href="#g900"
         id="use952"
         transform="translate(116.81772,182.05828)"
         width="100%"
         height="100%" />
      <use
         x="0"
         y="0"
         xlink:href="#g900"
         id="use954"
         transform="translate(154.41854,212.64861)"
         width="100%"
         height="100%" />
      <use
         x="0"
         y="0"
         xlink:href="#g900"
         id="use956"
         transform="translate(362.00035,109.63056)"
         width="100%"
         height="100%" />
      <use
         x="0"
         y="0"
         xlink:href="#g900"
         id="use966"
         transform="translate(408.9166,120.43838)"
         width="100%"
         height="100%" />
      <use
         x="0"
         y="0"
         xlink:href="#g900"
         id="use958"
         transform="translate(358.4667,128.62773)"
         width="100%"
         height="100%" />
      <use
         x="0"
         y="0"
         xlink:href="#g900"
         id="use968"
         transform="translate(414.1959,145.80557)"
         width="100%"
         height="100%" />
      <use
         x="0"
         y="0"
         xlink:href="#g900"
         id="use960"
         transform="translate(363.746,153.99492)"
         width="100%"
         height="100%" />
      <use
         x="0"
         y="0"
         xlink:href="#g900"
         id="use962"
         transform="translate(357.09371,175.04621)"
         width="100%"
         height="100%" />
      <use
         x="0"
         y="0"
         xlink:href="#g900"
         id="use970"
         transform="translate(408.04509,184.11316)"
         width="100%"
         height="100%" />
      <use
         x="0"
         y="0"
         xlink:href="#g900"
         id="use974"
         transform="translate(455.41227,184.11316)"
         width="100%"
         height="100%" />
      <use
         x="0"
         y="0"
         xlink:href="#g900"
         id="use972"
         transform="translate(428.11835,208.20514)"
         width="100%"
         height="100%" />
      <use
         x="0"
         y="0"
         xlink:href="#g900"
         id="use964"
         transform="translate(362.37301,200.4134)"
         width="100%"
         height="100%" />
      <use
         x="0"
         y="0"
         xlink:href="#g900"
         id="use1137"
         transform="translate(303.50979,229.57269)"
         width="100%"
         height="100%" />
      <use
         x="0"
         y="0"
         xlink:href="#g900"
         id="use914"
         transform="translate(252.55153,230.381)"
         width="100%"
         height="100%" />
      <use
         x="0"
         y="0"
         xlink:href="#g900"
         id="use916"
         transform="translate(274.97373,232.101)"
         width="100%"
         height="100%" />
      <use
         x="0"
         y="0"
         xlink:href="#g900"
         id="use918"
         transform="translate(324.45935,233.6072)"
         width="100%"
         height="100%" />
      <use
         x="0"
         y="0"
         xlink:href="#g900"
         id="use920"
         transform="translate(231.22157,243.16642)"
         width="100%"
         height="100%" />
      <use
         x="0"
         y="0"
         xlink:href="#g900"
         id="use922"
         transform="translate(284.32887,253.7228)"
         width="100%"
         height="100%" />
      <use
         x="0"
         y="0"
         xlink:href="#g900"
         id="use924"
         transform="translate(319.35797,271.18196)"
         width="100%"
         height="100%" />
      <use
         x="0"
         y="0"
         xlink:href="#g900"
         id="use926"
         transform="translate(251.27153,265.99285)"
         width="100%"
         height="100%" />
      <use
         x="0"
         y="0"
         xlink:href="#g900"
         id="use928"
         transform="translate(208.30876,277.26655)"
         width="100%"
         height="100%" />
    </g>
  </g>
  <g
     inkscape:label="Baloon"
     inkscape:groupmode="layer"
     id="layer1"
     style="display:none">
    <g
       id="g1413"
       class="baloon">
      <path
         style="fill:#ff6600;fill-opacity:1;stroke:#aa4400;stroke-width:1;stroke-linecap:butt;stroke-linejoin:miter;stroke-miterlimit:4;stroke-dasharray:none;stroke-opacity:1"
         d="m -7.197337,59.467629 c 4.2034273,-3.779213 5.2657713,-3.851607 4.9244938,-10.227794 l 4.7982245,0.252539 c 0.6108677,4.287745 2.0884838,5.296777 0.1262691,10.227793 -7.010798,2.194559 -6.7804758,0.838142 -9.8489874,-0.252538 z"
         id="path827"
         inkscape:connector-curvature="0"
         sodipodi:nodetypes="ccccc"
         inkscape:export-xdpi="107.24358"
         inkscape:export-ydpi="107.24358" />
      <image
         sodipodi:absref="/home/daniele/hack/git/birthday-2021/resources/rachele/t01.png"
         xlink:href="../../birthday-2021/resources/rachele/t01.png"
         clip-path="url(#clipPath842)"
         width="100"
         height="100"
         preserveAspectRatio="none"
         id="image839"
         x="-50"
         y="-50"
         inkscape:export-xdpi="107.24358"
         inkscape:export-ydpi="107.24358" />
      <ellipse
         ry="50"
         rx="44.191624"
         cy="0"
         cx="0"
         id="ellipse945"
         style="opacity:1;vector-effect:none;fill:#ff6600;fill-opacity:1;stroke:none;stroke-width:1;stroke-linecap:round;stroke-linejoin:miter;stroke-miterlimit:4;stroke-dasharray:none;stroke-dashoffset:0;stroke-opacity:1;paint-order:markers fill stroke"
         class="colorfill"
         inkscape:export-xdpi="107.24358"
         inkscape:export-ydpi="107.24358" />
      <ellipse
         style="opacity:1;vector-effect:none;fill:none;fill-opacity:1;stroke:#aa4400;stroke-width:1;stroke-linecap:round;stroke-linejoin:miter;stroke-miterlimit:4;stroke-dasharray:none;stroke-dashoffset:0;stroke-opacity:1;paint-order:markers fill stroke"
         id="circle825"
         cx="0"
         cy="0"
         rx="44.191624"
         ry="50"
         inkscape:export-xdpi="107.24358"
         inkscape:export-ydpi="107.24358" />
      <path
         inkscape:connector-curvature="0"
         id="ellipse851"
         d="M 35.150391,-30.236328 A 44.191624,50 0 0 1 40.621094,-6.25 44.191624,50 0 0 1 -3.5722656,43.75 44.191624,50 0 0 1 -38.726562,23.978516 44.191624,50 0 0 0 0,50 44.191624,50 0 0 0 44.191406,0 44.191624,50 0 0 0 35.150391,-30.236328 Z"
         style="opacity:0.25;vector-effect:none;fill:#333333;fill-opacity:1;stroke:none;stroke-width:1;stroke-linecap:round;stroke-linejoin:miter;stroke-miterlimit:4;stroke-dasharray:none;stroke-dashoffset:0;stroke-opacity:1;paint-order:markers fill stroke"
         class="shadows"
         inkscape:export-xdpi="107.24358"
         inkscape:export-ydpi="107.24358" />
      <g
         id="g908"
         class="points">
        <text
           xml:space="preserve"
           style="font-style:normal;font-variant:normal;font-weight:normal;font-stretch:normal;font-size:70.0761px;line-height:1.25;font-family:'AR JULIAN';-inkscape-font-specification:'AR JULIAN, Normal';font-variant-ligatures:normal;font-variant-caps:normal;font-variant-numeric:normal;font-feature-settings:normal;text-align:center;letter-spacing:0px;word-spacing:0px;writing-mode:lr-tb;text-anchor:middle;fill:#ffffff;fill-opacity:1;stroke:#ffffff;stroke-width:2;stroke-miterlimit:4;stroke-dasharray:none"
           x="0.14148159"
           y="26.788397"
           id="text835"><tspan
             style="fill:#ffffff;stroke:#ffffff;stroke-width:2;stroke-miterlimit:4;stroke-dasharray:none"
             sodipodi:role="line"
             id="tspan833"
             x="0.14147992"
             y="26.788397">xx</tspan></text>
        <text
           id="text1406"
           y="26.788397"
           x="0.14148159"
           style="font-style:normal;font-variant:normal;font-weight:normal;font-stretch:normal;font-size:70.0761px;line-height:1.25;font-family:'AR JULIAN';-inkscape-font-specification:'AR JULIAN, Normal';font-variant-ligatures:normal;font-variant-caps:normal;font-variant-numeric:normal;font-feature-settings:normal;text-align:center;letter-spacing:0px;word-spacing:0px;writing-mode:lr-tb;text-anchor:middle;fill:#0000aa;fill-opacity:1;stroke:none;stroke-width:0.93852"
           xml:space="preserve"><tspan
             y="26.788397"
             x="0.14147992"
             id="tspan1404"
             sodipodi:role="line"
             style="fill:#0000aa;stroke-width:0.93852">xx</tspan></text>
      </g>
      <path
         sodipodi:nodetypes="cccc"
         inkscape:connector-curvature="0"
         id="path857"
         d="m -5.6530096,-35.631344 c -3.3202018,-3.4628 -6.8382254,-6.589304 -12.5000004,-6.071429 -9.639,8.070297 -15.993036,27.412571 -16.428571,39.8214283 4.57346,-12.3743463 8.940271,-21.6378793 28.9285714,-33.7499993 z"
         style="opacity:0.45;fill:#ffffff;stroke:none;stroke-width:1px;stroke-linecap:butt;stroke-linejoin:miter;stroke-opacity:1"
         class="shadows"
         inkscape:export-xdpi="107.24358"
         inkscape:export-ydpi="107.24358" />
    </g>
  </g>
  <g
     inkscape:groupmode="layer"
     id="layer2"
     inkscape:label="Score"
     style="display:none">
    <g
       id="g867"
       class="prize">
      <path
         sodipodi:nodetypes="ccccc"
         inkscape:connector-curvature="0"
         id="path827-3"
         d="m 57.982575,95.637707 c 2.665439,-2.396436 3.33908,-2.442339 3.12267,-6.485549 l 3.042609,0.160144 c 0.387358,2.718901 1.324326,3.358745 0.08006,6.485549 -4.445622,1.391594 -4.299573,0.531473 -6.245347,-0.160144 z"
         style="display:inline;fill:#ff6600;fill-opacity:1;stroke:#aa4400;stroke-width:0.63411;stroke-linecap:butt;stroke-linejoin:miter;stroke-miterlimit:4;stroke-dasharray:none;stroke-opacity:1" />
      <path
         inkscape:connector-curvature="0"
         id="path1068"
         d="m 33.809051,89.967375 c -1.180716,-1.180717 -0.317925,-2.836886 3.327968,-6.38809 3.449023,-3.359463 3.795114,-3.989964 3.336445,-6.078251 -0.395067,-1.798764 -0.162403,-2.655507 1.020845,-3.757809 2.904259,-2.705706 3.094098,-15.402808 0.245762,-16.436156 C 38.880863,56.269763 34.203626,52.4897 32.197628,49.595056 31.016911,47.89132 29.708956,46.49734 29.291007,46.49734 c -1.529373,0 -13.250886,-8.347294 -16.172371,-11.516896 -4.8268819,-5.236862 -6.6368705,-9.753103 -6.6368705,-16.560182 0,-4.945227 0.3039907,-6.318124 2.0639385,-9.3212488 1.1351722,-1.937018 3.056962,-4.0353566 4.270635,-4.6629758 3.44131,-1.7795703 8.424802,-1.4580959 11.684089,0.7537175 l 2.792191,1.8948424 h 22.39799 c 21.860377,0 22.454184,-0.040023 24.739223,-1.6671148 1.530511,-1.0898269 3.81448,-1.7736824 6.595714,-1.9748581 3.793415,-0.2743895 4.529155,-0.076581 6.789375,1.8252453 3.540569,2.9791925 5.314226,7.2910363 5.334289,12.9678713 0.03483,9.876062 -4.719248,16.960186 -16.37427,24.399101 -3.282526,2.095092 -6.479823,4.391258 -7.105125,5.102586 -5.473877,6.226996 -7.185597,7.789172 -9.853098,8.99204 -3.647864,1.644941 -4.129501,3.025145 -3.606499,10.334837 0.291748,4.077637 0.74245,5.625527 1.971343,6.77045 1.214574,1.13152 1.483676,2.031752 1.132336,3.788285 -0.409048,2.045274 -0.01019,2.737882 3.546158,6.166247 6.235235,6.009977 5.761446,6.246158 -13.026766,6.493907 -8.527204,0.112459 -15.738096,-0.02956 -16.024238,-0.315819 z m -6.926058,-50.17599 c -1.31497,-4.14315 -2.689432,-13.86213 -2.689432,-19.017486 0,-9.303318 -1.587437,-12.1734268 -6.733026,-12.1734268 -3.009227,0 -6.198015,4.0627368 -6.702636,8.5395458 -0.7803658,6.923367 2.726024,13.595071 10.539472,20.053755 5.160164,4.265469 6.280319,4.786393 5.585622,2.597612 z m 54.642486,-5.751197 c 3.814684,-3.804342 5.659927,-6.287231 6.248739,-8.40818 1.831755,-6.597945 0.460181,-14.450849 -2.831671,-16.2125908 -2.461372,-1.317291 -5.357647,-0.949751 -7.224159,0.9167558 -1.565981,1.56597 -1.785072,2.696263 -2.240616,11.558546 -0.447967,8.715167 -1.102624,13.443355 -2.497131,18.035724 -0.714878,2.354208 2.50024,0.137924 8.544838,-5.890255 z"
         style="fill:#ff6600;fill-opacity:1;stroke-width:0.757937" />
      <path
         inkscape:connector-curvature="0"
         id="path1070"
         d="m 88.284897,5.7125733 c 2.232639,2.8022619 3.371671,6.4327997 3.387597,10.9391807 0.03482,9.876062 -4.718912,16.961066 -16.373934,24.399981 -3.282526,2.095092 -6.481681,4.391634 -7.106983,5.102962 -5.473877,6.226995 -7.183404,7.788692 -9.850905,8.991561 -3.647864,1.644941 -4.129579,3.025628 -3.606579,10.335321 0.291748,4.077637 0.741952,5.62695 1.970846,6.771874 1.214573,1.13152 1.48275,2.029212 1.131409,3.785745 -0.349468,1.747372 0.02079,2.608185 2.31591,4.930429 -1.019113,-1.275116 -1.101508,-2.037395 -0.839435,-3.347781 0.351341,-1.756533 0.08315,-2.654227 -1.131411,-3.785745 -1.228894,-1.144923 -1.679096,-2.694238 -1.970844,-6.771876 -0.523002,-7.309692 -0.04128,-8.690378 3.606579,-10.335319 2.667501,-1.202868 4.380344,-2.764567 9.854221,-8.991563 0.625302,-0.711328 3.821139,-3.007867 7.103665,-5.10296 C 88.430056,35.195469 93.183792,28.110465 93.148967,18.234402 93.129857,12.825135 91.499907,8.6711192 88.284897,5.7125733 Z M 15.984111,7.0165155 c -3.009227,0 -6.1975778,4.0635165 -6.7021988,8.5403255 -0.642446,5.699753 1.6685008,11.226007 6.8481858,16.606189 -4.157118,-4.879765 -5.951238,-9.882018 -5.371711,-15.023541 0.504621,-4.476808 3.69297,-8.5403248 6.702197,-8.5403248 1.554612,0 2.779909,0.270292 3.739296,0.892519 -1.045291,-1.782693 -2.703704,-2.4751677 -5.215769,-2.4751677 z m 64.60653,0.039819 C 78.977153,7.0064585 77.407419,7.5885422 76.240848,8.7551092 74.674867,10.321079 74.456796,11.44914 74.001253,20.311423 73.553286,29.02659 72.897367,33.755266 71.50286,38.347634 c -0.366001,1.205297 0.311468,1.1951 1.858035,0.106173 1.115441,-4.175422 1.715693,-8.755596 2.116833,-16.559736 0.455543,-8.862282 0.673613,-9.990345 2.239595,-11.556315 1.866512,-1.8665068 4.765057,-2.2363538 7.226429,-0.9190628 0.0919,0.04918 0.176547,0.120647 0.265433,0.179167 C 84.711692,8.8060912 84.128549,8.1917232 83.463959,7.8360452 82.540945,7.3420619 81.558734,7.0862604 80.590641,7.0563345 Z M 12.277994,34.007792 c 0.279808,0.324159 0.536096,0.643048 0.839434,0.972151 2.921485,3.169602 14.645485,11.5165 16.174858,11.5165 0.114888,0 0.305932,0.123755 0.534185,0.311883 -0.885568,-1.110821 -1.700515,-1.894532 -2.013978,-1.894532 -1.446466,0 -11.921806,-7.414887 -15.534499,-10.906002 z m 20.693865,16.586281 c 2.180702,2.609483 5.929708,5.547307 8.473967,6.582753 -0.310292,-0.744229 -0.699965,-1.277466 -1.184498,-1.45325 -2.051303,-0.744202 -5.02441,-2.901618 -7.289469,-5.129503 z M 64.15035,85.077212 c 2.596915,3.227896 -0.627154,3.423181 -15.793298,3.623169 -6.813961,0.08987 -12.722424,0.01631 -14.993679,-0.162573 -0.09872,0.56546 0.04403,1.029449 0.444601,1.430024 0.286142,0.286261 7.498349,0.427661 16.025553,0.315203 17.272594,-0.227764 18.984543,-0.502427 14.316823,-5.205816 z"
         style="opacity:0.35;fill:#333333;fill-opacity:1;stroke-width:0.757937" />
      <path
         style="fill:none;fill-opacity:1;stroke:#aa4400;stroke-width:0.757937;stroke-opacity:1"
         d="m 33.809051,89.967375 c -1.180716,-1.180717 -0.317925,-2.836886 3.327968,-6.38809 3.449023,-3.359463 3.795114,-3.989964 3.336445,-6.078251 -0.395067,-1.798764 -0.162403,-2.655507 1.020845,-3.757809 2.904259,-2.705706 3.094098,-15.402808 0.245762,-16.436156 C 38.880863,56.269763 34.203626,52.4897 32.197628,49.595056 31.016911,47.89132 29.708956,46.49734 29.291007,46.49734 c -1.529373,0 -13.250886,-8.347294 -16.172371,-11.516896 -4.8268819,-5.236862 -6.6368705,-9.753103 -6.6368705,-16.560182 0,-4.945227 0.3039907,-6.318124 2.0639385,-9.3212488 1.1351722,-1.937018 3.056962,-4.0353566 4.270635,-4.6629758 3.44131,-1.7795703 8.424802,-1.4580959 11.684089,0.7537175 l 2.792191,1.8948424 h 22.39799 c 21.860377,0 22.454184,-0.040023 24.739223,-1.6671148 1.530511,-1.0898269 3.81448,-1.7736824 6.595714,-1.9748581 3.793415,-0.2743895 4.529155,-0.076581 6.789375,1.8252453 3.540569,2.9791925 5.314226,7.2910363 5.334289,12.9678713 0.03483,9.876062 -4.719248,16.960186 -16.37427,24.399101 -3.282526,2.095092 -6.479823,4.391258 -7.105125,5.102586 -5.473877,6.226996 -7.185597,7.789172 -9.853098,8.99204 -3.647864,1.644941 -4.129501,3.025145 -3.606499,10.334837 0.291748,4.077637 0.74245,5.625527 1.971343,6.77045 1.214574,1.13152 1.483676,2.031752 1.132336,3.788285 -0.409048,2.045274 -0.01019,2.737882 3.546158,6.166247 6.235235,6.009977 5.761446,6.246158 -13.026766,6.493907 -8.527204,0.112459 -15.738096,-0.02956 -16.024238,-0.315819 z m -6.926058,-50.17599 c -1.31497,-4.14315 -2.689432,-13.86213 -2.689432,-19.017486 0,-9.303318 -1.587437,-12.1734268 -6.733026,-12.1734268 -3.009227,0 -6.198015,4.0627368 -6.702636,8.5395458 -0.7803658,6.923367 2.726024,13.595071 10.539472,20.053755 5.160164,4.265469 6.280319,4.786393 5.585622,2.597612 z m 54.642486,-5.751197 c 3.814684,-3.804342 5.659927,-6.287231 6.248739,-8.40818 1.831755,-6.597945 0.460181,-14.450849 -2.831671,-16.2125908 -2.461372,-1.317291 -5.357647,-0.949751 -7.224159,0.9167558 -1.565981,1.56597 -1.785072,2.696263 -2.240616,11.558546 -0.447967,8.715167 -1.102624,13.443355 -2.497131,18.035724 -0.714878,2.354208 2.50024,0.137924 8.544838,-5.890255 z"
         id="path1075"
         inkscape:connector-curvature="0" />
      <text
         xml:space="preserve"
         style="font-style:normal;font-variant:normal;font-weight:normal;font-stretch:normal;font-size:47.359px;line-height:1.25;font-family:'AR JULIAN';-inkscape-font-specification:'AR JULIAN, Normal';font-variant-ligatures:normal;font-variant-caps:normal;font-variant-numeric:normal;font-feature-settings:normal;text-align:center;letter-spacing:0px;word-spacing:0px;writing-mode:lr-tb;text-anchor:middle;fill:#ffffff;fill-opacity:1;stroke:#ffffff;stroke-width:1.35164;stroke-miterlimit:4;stroke-dasharray:none"
         x="49.877247"
         y="45.806625"
         id="text835-7"><tspan
           style="fill:#ffffff;stroke:#ffffff;stroke-width:1.35164;stroke-miterlimit:4;stroke-dasharray:none"
           sodipodi:role="line"
           id="tspan833-5"
           x="49.877247"
           y="45.806625">yyyy</tspan></text>
      <path
         sodipodi:nodetypes="ccccc"
         inkscape:connector-curvature="0"
         id="path850"
         d="M 56.217185,9.8796088 C 46.782777,9.557318 37.039184,8.6939513 29.169011,11.109072 c -2.057271,8.500515 -1.47513,16.88221 -0.418816,25.367961 0.338917,-11.268818 -0.950121,-18.054387 3.87668,-22.985879 7.647751,-2.060691 9.779666,-2.328616 23.59031,-3.6115452 z"
         style="opacity:0.35;fill:#ffffff;stroke:none;stroke-width:1.74959px;stroke-linecap:butt;stroke-linejoin:miter;stroke-opacity:1" />
      <text
         id="text1406-3"
         y="45.806625"
         x="49.795349"
         style="font-style:normal;font-variant:normal;font-weight:normal;font-stretch:normal;font-size:47.359px;line-height:1.25;font-family:'AR JULIAN';-inkscape-font-specification:'AR JULIAN, Normal';font-variant-ligatures:normal;font-variant-caps:normal;font-variant-numeric:normal;font-feature-settings:normal;text-align:center;letter-spacing:0px;word-spacing:0px;writing-mode:lr-tb;text-anchor:middle;fill:#0000aa;fill-opacity:1;stroke:none;stroke-width:0.634273"
         xml:space="preserve"><tspan
           y="45.806625"
           x="49.795349"
           id="tspan1404-5"
           sodipodi:role="line"
           style="fill:#0000aa;stroke-width:0.634273">yyyy</tspan></text>
    </g>
  </g>
  <g
     inkscape:groupmode="layer"
     id="layer4"
     inkscape:label="Replay"
     style="display:none">
    <g
       id="g877"
       class="replay">
      <path
         inkscape:connector-curvature="0"
         id="path1023"
         d="m 37.987031,88.137059 c 0.239543,4.475558 -0.507502,4.525946 -3.457952,7.17864 2.153824,0.765567 1.992397,1.71805 6.913386,0.177647 1.377321,-3.461161 0.341223,-4.169001 -0.08756,-7.17864 z m 42.704015,0 c 0.239543,4.475558 -0.505007,4.525946 -3.455456,7.17864 2.153824,0.765567 1.992396,1.71805 6.913408,0.177647 1.377322,-3.461161 0.338705,-4.169001 -0.09011,-7.17864 z"
         style="display:inline;fill:#ff6600;fill-opacity:1;stroke:#aa4400;stroke-width:0.701917;stroke-linecap:butt;stroke-linejoin:miter;stroke-miterlimit:4;stroke-dasharray:none;stroke-opacity:1" />
      <path
         inkscape:connector-curvature="0"
         id="path1019"
         d="m 15.162502,6.6974184 a 6.4061179,6.4061179 0 1 0 0,12.8109576 h 10.571534 c -11.199154,9.009508 -16.8205415,23.421556 -14.51742,37.757285 2.460669,15.316091 13.536378,27.881677 28.42182,32.247576 a 6.4061179,6.4061179 0 0 0 8.061885,-4.411273 6.4061179,6.4061179 0 0 0 -4.456299,-7.881739 C 33.071102,74.236506 25.546593,65.698656 23.864945,55.231421 22.219363,44.988553 26.476829,34.76163 34.836825,28.686222 v 9.580693 a 6.4061179,6.4061179 0 1 0 12.810957,0 V 13.102897 A 6.4061179,6.4061179 0 0 0 41.242315,6.6974184 Z m 44.227816,0 a 6.4061179,6.4061179 0 0 0 -6.170268,4.6940156 6.4061179,6.4061179 0 0 0 4.456321,7.881738 c 10.17292,2.983719 17.697406,11.521569 19.379054,21.988804 1.645605,10.242867 -2.611884,20.469788 -10.971879,26.545199 v -9.580693 a 6.4061179,6.4061179 0 1 0 -12.810958,0 v 25.164019 a 6.4061179,6.4061179 0 0 0 6.40549,6.405478 h 26.07979 a 6.4061179,6.4061179 0 1 0 0,-12.810955 H 75.186335 C 86.385488,67.975515 92.006898,53.563465 89.703753,39.227736 87.243108,23.911647 76.1674,11.34606 61.281935,6.9801605 A 6.4061179,6.4061179 0 0 0 59.390318,6.6974184 Z"
         style="color:#000000;font-style:normal;font-variant:normal;font-weight:normal;font-stretch:normal;font-size:medium;line-height:normal;font-family:sans-serif;font-variant-ligatures:normal;font-variant-position:normal;font-variant-caps:normal;font-variant-numeric:normal;font-variant-alternates:normal;font-feature-settings:normal;text-indent:0;text-align:start;text-decoration:none;text-decoration-line:none;text-decoration-style:solid;text-decoration-color:#000000;letter-spacing:normal;word-spacing:normal;text-transform:none;writing-mode:lr-tb;direction:ltr;text-orientation:mixed;dominant-baseline:auto;baseline-shift:baseline;text-anchor:start;white-space:normal;shape-padding:0;clip-rule:nonzero;display:inline;overflow:visible;visibility:visible;opacity:1;isolation:auto;mix-blend-mode:normal;color-interpolation:sRGB;color-interpolation-filters:linearRGB;solid-color:#000000;solid-opacity:1;vector-effect:none;fill:#ff6600;fill-opacity:1;fill-rule:nonzero;stroke:none;stroke-width:1.2811;stroke-linecap:round;stroke-linejoin:miter;stroke-miterlimit:4;stroke-dasharray:none;stroke-dashoffset:0;stroke-opacity:1;paint-order:markers fill stroke;color-rendering:auto;image-rendering:auto;shape-rendering:auto;text-rendering:auto;enable-background:accumulate" />
      <path
         inkscape:connector-curvature="0"
         id="path1031"
         d="m 58.564628,8.6691041 c -0.709593,0.8396754 -0.628013,2.2398999 0.440362,4.3462169 4.41649,-0.22055 16.704974,6.243187 23.152305,11.637452 C 76.004401,17.555975 67.392364,10.895324 58.564628,8.6691041 Z M 25.583929,8.8117251 C 22.085707,8.8292841 18.393919,9.0383753 14.149138,9.3722049 14.338822,11.30701 15.25478,12.44518 16.939015,12.737581 20.482336,10.091998 34.771625,9.7376269 43.131413,10.620773 36.70774,9.2850751 31.414245,8.7825332 25.583929,8.8117251 Z M 27.10773,20.937094 C 20.549083,27.251304 16.378535,37.309114 14.559488,46.523973 17.479186,38.640994 24.940691,26.931127 28.884242,24.930508 28.766181,22.571678 28.140501,21.31384 27.10773,20.937094 Z m 28.954758,33.681302 c -0.890197,11.319416 -0.888556,18.704412 1.248563,28.982282 -0.88315,-8.359786 -0.528781,-22.649096 2.116811,-26.192399 -0.292404,-1.684251 -1.430576,-2.60008 -3.365374,-2.789883 z"
         style="display:inline;opacity:0.35;fill:#ffffff;stroke:none;stroke-width:1.2811px;stroke-linecap:butt;stroke-linejoin:miter;stroke-opacity:1" />
      <path
         inkscape:connector-curvature="0"
         id="path1041"
         d="m 44.064722,7.3554803 a 6.4061179,6.4061179 0 0 1 1.523801,4.1460467 v 25.164018 a 6.4061179,6.4061179 0 0 1 -9.227874,5.832488 6.4061179,6.4061179 0 0 0 11.287133,-4.231118 V 13.102897 a 6.4061179,6.4061179 0 0 0 -3.58306,-5.7474167 z m 31.399346,7.1461117 c 6.548134,6.01713 11.077141,14.134915 12.540733,23.244878 2.303145,14.335726 -3.318265,28.747776 -14.517419,37.757286 h 3.422927 C 86.950774,66.444014 91.884932,52.804348 89.703753,39.227736 88.116416,29.34759 82.931464,20.62982 75.464068,14.501592 Z m -21.045499,2.622243 a 6.4061179,6.4061179 0 0 0 3.257802,2.149337 c 3.529759,1.035286 6.731973,2.753021 9.490613,4.974253 -3.10483,-2.952461 -6.908787,-5.19996 -11.189588,-6.455519 a 6.4061179,6.4061179 0 0 1 -1.558827,-0.668071 z m -44.220308,0.132617 a 6.4061179,6.4061179 0 0 0 4.964241,2.251928 h 6.653188 c 0.602945,-0.548948 1.219291,-1.086666 1.859086,-1.60137 H 13.103243 a 6.4061179,6.4061179 0 0 1 -2.904982,-0.650558 z m 22.579305,9.828404 c -8.359996,6.075411 -12.617485,16.302332 -10.97188,26.545199 1.188816,7.399708 5.306757,13.824809 11.207078,18.015407 -4.795904,-4.14518 -8.102155,-9.90541 -9.147819,-16.414037 -1.503654,-9.359421 1.932557,-18.696106 8.912621,-24.87377 z m 30.205816,25.574372 a 6.4061179,6.4061179 0 0 1 1.401211,4.085992 v 9.580693 c 0.588829,-0.427921 1.151457,-0.880985 1.698953,-1.348654 V 58.226486 A 6.4061179,6.4061179 0 0 0 62.983382,52.659228 Z M 44.337465,77.638086 a 6.4061179,6.4061179 0 0 1 1.30362,5.862514 6.4061179,6.4061179 0 0 1 -8.061908,4.411272 c -4.481136,-1.314317 -8.605984,-3.383301 -12.265496,-6.035161 4.13982,3.429305 8.980338,6.069015 14.324755,7.636531 a 6.4061179,6.4061179 0 0 0 8.061885,-4.411274 6.4061179,6.4061179 0 0 0 -3.362856,-7.463882 z M 89.13826,77.900811 A 6.4061179,6.4061179 0 0 1 84.058916,88.314715 H 57.979103 a 6.4061179,6.4061179 0 0 1 -3.290286,-0.918284 6.4061179,6.4061179 0 0 0 4.989261,2.399553 h 26.07979 A 6.4061179,6.4061179 0 0 0 89.13826,77.900811 Z"
         style="color:#000000;font-style:normal;font-variant:normal;font-weight:normal;font-stretch:normal;font-size:medium;line-height:normal;font-family:sans-serif;font-variant-ligatures:normal;font-variant-position:normal;font-variant-caps:normal;font-variant-numeric:normal;font-variant-alternates:normal;font-feature-settings:normal;text-indent:0;text-align:start;text-decoration:none;text-decoration-line:none;text-decoration-style:solid;text-decoration-color:#000000;letter-spacing:normal;word-spacing:normal;text-transform:none;writing-mode:lr-tb;direction:ltr;text-orientation:mixed;dominant-baseline:auto;baseline-shift:baseline;text-anchor:start;white-space:normal;shape-padding:0;clip-rule:nonzero;display:inline;overflow:visible;visibility:visible;opacity:0.25;isolation:auto;mix-blend-mode:normal;color-interpolation:sRGB;color-interpolation-filters:linearRGB;solid-color:#000000;solid-opacity:1;vector-effect:none;fill:#333333;fill-opacity:1;fill-rule:nonzero;stroke:none;stroke-width:1.2811;stroke-linecap:round;stroke-linejoin:miter;stroke-miterlimit:4;stroke-dasharray:none;stroke-dashoffset:0;stroke-opacity:1;paint-order:markers fill stroke;color-rendering:auto;image-rendering:auto;shape-rendering:auto;text-rendering:auto;enable-background:accumulate" />
      <path
         inkscape:connector-curvature="0"
         style="color:#000000;font-style:normal;font-variant:normal;font-weight:normal;font-stretch:normal;font-size:medium;line-height:normal;font-family:sans-serif;font-variant-ligatures:normal;font-variant-position:normal;font-variant-caps:normal;font-variant-numeric:normal;font-variant-alternates:normal;font-feature-settings:normal;text-indent:0;text-align:start;text-decoration:none;text-decoration-line:none;text-decoration-style:solid;text-decoration-color:#000000;letter-spacing:normal;word-spacing:normal;text-transform:none;writing-mode:lr-tb;direction:ltr;text-orientation:mixed;dominant-baseline:auto;baseline-shift:baseline;text-anchor:start;white-space:normal;shape-padding:0;clip-rule:nonzero;display:inline;overflow:visible;visibility:visible;opacity:1;isolation:auto;mix-blend-mode:normal;color-interpolation:sRGB;color-interpolation-filters:linearRGB;solid-color:#000000;solid-opacity:1;vector-effect:none;fill:none;fill-opacity:1;fill-rule:nonzero;stroke:#aa4400;stroke-width:1.2811;stroke-linecap:round;stroke-linejoin:miter;stroke-miterlimit:4;stroke-dasharray:none;stroke-dashoffset:0;stroke-opacity:1;paint-order:markers fill stroke;color-rendering:auto;image-rendering:auto;shape-rendering:auto;text-rendering:auto;enable-background:accumulate"
         d="m 15.162502,6.6974184 a 6.4061179,6.4061179 0 1 0 0,12.8109576 h 10.571534 c -11.199154,9.009508 -16.8205415,23.421556 -14.51742,37.757285 2.460669,15.316091 13.536378,27.881677 28.42182,32.247576 a 6.4061179,6.4061179 0 0 0 8.061885,-4.411273 6.4061179,6.4061179 0 0 0 -4.456299,-7.881739 C 33.071102,74.236506 25.546593,65.698656 23.864945,55.231421 22.219363,44.988553 26.476829,34.76163 34.836825,28.686222 v 9.580693 a 6.4061179,6.4061179 0 1 0 12.810957,0 V 13.102897 A 6.4061179,6.4061179 0 0 0 41.242315,6.6974184 Z m 44.227816,0 a 6.4061179,6.4061179 0 0 0 -6.170268,4.6940156 6.4061179,6.4061179 0 0 0 4.456321,7.881738 c 10.17292,2.983719 17.697406,11.521569 19.379054,21.988804 1.645605,10.242867 -2.611884,20.469788 -10.971879,26.545199 v -9.580693 a 6.4061179,6.4061179 0 1 0 -12.810958,0 v 25.164019 a 6.4061179,6.4061179 0 0 0 6.40549,6.405478 h 26.07979 a 6.4061179,6.4061179 0 1 0 0,-12.810955 H 75.186335 C 86.385488,67.975515 92.006898,53.563465 89.703753,39.227736 87.243108,23.911647 76.1674,11.34606 61.281935,6.9801605 A 6.4061179,6.4061179 0 0 0 59.390318,6.6974184 Z"
         id="path1054" />
      <ellipse
         ry="48.79343"
         rx="47.857643"
         cy="50.413357"
         cx="49.614429"
         id="path869"
         style="opacity:0;vector-effect:none;fill:#0000ff;fill-opacity:1;stroke:none;stroke-width:1.18318;stroke-linecap:round;stroke-linejoin:round;stroke-miterlimit:4;stroke-dasharray:none;stroke-dashoffset:0;stroke-opacity:1;paint-order:markers fill stroke" />
    </g>
  </g>
</svg>
